<?xml version="1.0" encoding="iso-8859-1"?>
<!-- Uploaded to: SVG Repo, www.svgrepo.com, Generator: SVG Repo Mixer Tools -->
<!DOCTYPE svg PUBLIC "-//W3C//DTD SVG 1.1//EN" "http://www.w3.org/Graphics/SVG/1.1/DTD/svg11.dtd">
<svg fill="#000000" height="800px" width="800px" version="1.1" id="Capa_1" xmlns="http://www.w3.org/2000/svg" xmlns:xlink="http://www.w3.org/1999/xlink" 
	 viewBox="0 0 427.791 427.791" xml:space="preserve">
<path d="M280.581,418.786c0,4.971-4.029,9-9,9h-24.481c-0.099,0.003-0.197,0.005-0.296,0.005c-3.347,0-6.505-1.881-8.048-4.971
	c-0.187-0.373-0.349-0.76-0.483-1.16l-24.38-68.026l-24.378,68.027c-0.135,0.399-0.296,0.785-0.482,1.156
	c-0.935,1.873-2.464,3.303-4.268,4.139c-0.005,0.002-0.009,0.004-0.014,0.006c-0.001,0-0.003,0.001-0.004,0.002
	c-0.204,0.094-0.411,0.18-0.622,0.259c-1.086,0.405-2.269,0.602-3.437,0.563h-24.484c-4.971,0-9-4.029-9-9s4.029-9,9-9h18.445
	l30.243-84.394v-66.406c0-4.971,4.029-9,9-9s9,4.029,9,9v66.406l30.245,84.394h18.443
	C276.552,409.786,280.581,413.815,280.581,418.786z M161.015,183.527l-47.13-52.154c-3.333-3.688-9.023-3.977-12.712-0.643
	c-3.688,3.333-3.976,9.023-0.644,12.711l47.13,52.154c14.44,15.982,30.123,31.827,49.062,34.711
	c3.717,0.567,14.534,0.557,17.924,0.542c0.786,0.004,1.549,0.006,2.286,0.006c7.001,0,11.75-0.183,14.135-0.546
	c18.938-2.883,34.62-18.729,49.059-34.71l47.132-52.155c3.332-3.688,3.044-9.379-0.644-12.711s-9.378-3.045-12.712,0.643
	l-47.133,52.156c-11.725,12.978-25.329,26.991-38.411,28.983c-0.891,0.136-4.861,0.383-13.523,0.336
	c-0.063-0.001-0.126-0.001-0.188-0.001c-0.063,0-0.126,0-0.188,0.001c-8.347,0.042-13.896-0.177-15.025-0.337
	C186.347,210.519,172.742,196.506,161.015,183.527z M405.702,172.586c0-24.996-9.919-48.885-27.931-67.267
	c-16.257-16.592-37.844-27.428-61.347-30.913C304.449,30.918,262.397,0,213.892,0S123.336,30.918,111.36,74.406
	c-23.502,3.485-45.088,14.321-61.345,30.914c-18.009,18.381-27.927,42.271-27.927,67.266c0,27.599,12.104,53.691,33.41,72.462
	c-1.363,5.871-2.052,11.883-2.052,17.943c0,46.262,40.056,83.898,89.29,83.898c9.544,0,18.942-1.41,27.934-4.19
	c4.749-1.468,7.408-6.508,5.94-11.257c-1.47-4.749-6.514-7.407-11.257-5.94c-7.268,2.247-14.877,3.387-22.617,3.387
	c-39.31,0-71.29-29.562-71.29-65.898c0-6.278,0.955-12.486,2.838-18.453c1.129-3.577-0.079-7.479-3.031-9.792
	c-19.806-15.523-31.165-38.18-31.165-62.161c0-42.15,34.12-76.981,79.367-81.021c3.97-0.354,7.234-3.279,8.021-7.186
	C135.229,45.916,171.572,18,213.892,18s78.663,27.916,86.415,66.378c0.787,3.907,4.052,6.832,8.021,7.186
	c45.25,4.041,79.373,38.872,79.373,81.021c0,23.979-11.36,46.636-31.167,62.161c-2.951,2.313-4.159,6.212-3.032,9.788
	c1.883,5.977,2.837,12.186,2.837,18.457c0,36.336-31.98,65.898-71.29,65.898c-7.738,0-15.348-1.14-22.617-3.387
	c-4.752-1.467-9.789,1.191-11.257,5.941c-1.468,4.749,1.191,9.788,5.94,11.256c8.993,2.78,18.392,4.189,27.934,4.189
	c49.234,0,89.29-37.637,89.29-83.898c0-6.056-0.688-12.066-2.051-17.942C393.598,226.277,405.702,200.186,405.702,172.586z
	 M213.892,189.762c-20.993,0-38.072-17.08-38.072-38.073s17.079-38.072,38.072-38.072c20.994,0,38.074,17.079,38.074,38.072
	S234.886,189.762,213.892,189.762z M213.892,171.762c11.069,0,20.074-9.004,20.074-20.073c0-11.068-9.005-20.072-20.074-20.072
	c-11.067,0-20.072,9.004-20.072,20.072C193.82,162.758,202.825,171.762,213.892,171.762z"/>
</svg>