<?xml version="1.0" encoding="iso-8859-1"?>
<!-- Uploaded to: SVG Repo, www.svgrepo.com, Generator: SVG Repo Mixer Tools -->
<svg fill="#000000" version="1.1" id="Layer_1" xmlns="http://www.w3.org/2000/svg" xmlns:xlink="http://www.w3.org/1999/xlink" 
	 viewBox="0 0 512 512" xml:space="preserve">
<g>
	<g>
		<path d="M468.309,462.425v-66.064h-22.025V291.773H193.057V159.678h110.07v32.999h-13.753v16.544h30.263v44.039h49.575V209.22
			h30.264v-16.544h-13.742v-32.999h33.031V33.032H259.108V0H77.418v396.361H44.386v66.064H5.851V512h500.298v-49.575H468.309z
			 M429.74,308.316v38.502H193.057v-38.502H429.74z M429.74,363.362v32.999h-27.495v-32.999H429.74z M385.701,363.362v32.999
			H193.057v-32.999H385.701z M352.669,236.716h-16.488V209.22h16.488V236.716z M369.191,192.677h-49.52v-32.999h49.52V192.677z
			 M93.962,16.544h148.605v16.488H93.962V16.544z M93.962,49.575h308.261v38.502h-39.671c-3.611-12.69-15.303-22.014-29.139-22.014
			c-13.831,0-25.519,9.324-29.128,22.014H93.962V49.575z M347.166,96.349c0,7.584-6.17,13.753-13.753,13.753
			c-7.577,0-13.742-6.17-13.742-13.753c0-7.578,6.165-13.742,13.742-13.742C340.996,82.607,347.166,88.771,347.166,96.349z
			 M93.962,104.621h210.322c3.609,12.697,15.296,22.025,29.129,22.025c13.837,0,25.529-9.328,29.139-22.025h39.67v38.513H93.962
			V104.621z M93.962,159.678h82.552v32.999H93.962V159.678z M93.962,209.22h32.999v107.334h16.544V209.22h33.01v187.14H93.962
			V209.22z M60.93,412.904h390.835v49.52H60.93V412.904z M489.606,495.456H22.394v-16.488h467.211V495.456z"/>
	</g>
</g>
<g>
	<g>
		<rect x="124.231" y="330.308" width="22.025" height="16.544"/>
	</g>
</g>
<g>
	<g>
		<rect x="124.231" y="363.329" width="22.025" height="16.544"/>
	</g>
</g>
</svg>